<?xml version="1.0" encoding="UTF-8"?>
<svg width="200" height="200" viewBox="0 0 200 200" version="1.1" xmlns="http://www.w3.org/2000/svg">
  <rect width="200" height="200" fill="#f8f9fa"/>
  <g transform="translate(40, 35)">
    <!-- Left Earbud -->
    <g transform="translate(0, 0)">
      <path d="M30,50 C30,35 35,25 45,25 C55,25 60,35 60,50 L60,70 C60,75 55,80 45,80 C35,80 30,75 30,70 Z" fill="#fff" stroke="#ddd"/>
      <rect x="40" y="80" width="10" height="15" rx="5" fill="#fff" stroke="#ddd"/>
    </g>
    <!-- Right Earbud -->
    <g transform="translate(60, 0)">
      <path d="M30,50 C30,35 35,25 45,25 C55,25 60,35 60,50 L60,70 C60,75 55,80 45,80 C35,80 30,75 30,70 Z" fill="#fff" stroke="#ddd"/>
      <rect x="40" y="80" width="10" height="15" rx="5" fill="#fff" stroke="#ddd"/>
    </g>
    <!-- Case hint -->
    <rect x="25" y="100" width="90" height="5" rx="2" fill="#eee"/>
  </g>
  <text x="100" y="160" font-family="Arial, sans-serif" font-size="14" text-anchor="middle" fill="#333">AirPods</text>
</svg>