<?xml version="1.0" encoding="UTF-8" standalone="no"?>
<svg width="96" height="96" viewBox="0 0 96 96" fill="none" xmlns="http://www.w3.org/2000/svg">
  <rect width="96" height="96" fill="#F5F5F5"/>
  <path d="M48 30C43.0294 30 39 34.0294 39 39C39 43.9706 43.0294 48 48 48C52.9706 48 57 43.9706 57 39C57 34.0294 52.9706 30 48 30ZM48 45C44.6863 45 42 42.3137 42 39C42 35.6863 44.6863 33 48 33C51.3137 33 54 35.6863 54 39C54 42.3137 51.3137 45 48 45Z" fill="#BBBBBB"/>
  <path d="M63 60V66H33V60L39 54L43.5 58.5L54 48L63 57V60Z" fill="#BBBBBB"/>
  <path d="M30 27H66V69H30V27ZM63 66V60L54 51L43.5 61.5L39 57L33 63V66H63ZM33 30V60L39 54L43.5 58.5L54 48L63 57V30H33Z" fill="#BBBBBB"/>
</svg>